inDegrees=no
num_controls=7
num_derivatives=13
num_iterations=79
num_multipliers=7
num_parameters=0
num_slacks=7
num_states=26
objective=0.334544
objective_accelerations=0.034989
objective_balance=0.001100
objective_effort=0.027058
objective_height=0.269725
objective_ligament=0.001672
solver_duration=815.698421
status=Solve_Succeeded
success=true
DataType=double
version=3
OpenSimVersion=4.5
endheader
time	/jointset/ground_pelvis/pelvis_tilt/value	/jointset/ground_pelvis/pelvis_tx/value	/jointset/ground_pelvis/pelvis_ty/value	/jointset/hip_r/hip_flexion_r/value	/jointset/hip_r/hip_adduction_r/value	/jointset/hip_r/hip_rotation_r/value	/jointset/back/lumbar_extension/value	/jointset/patellofemoral_r/patellar_flexion_r/value	/jointset/knee_r/knee_flexion_r/value	/jointset/knee_r/knee_adduction_r/value	/jointset/knee_r/knee_rotation_r/value	/jointset/ankle_r/ankle_angle_r/value	/jointset/subtalar_r/subtalar_angle_r/value	/jointset/ground_pelvis/pelvis_tilt/speed	/jointset/ground_pelvis/pelvis_tx/speed	/jointset/ground_pelvis/pelvis_ty/speed	/jointset/hip_r/hip_flexion_r/speed	/jointset/hip_r/hip_adduction_r/speed	/jointset/hip_r/hip_rotation_r/speed	/jointset/back/lumbar_extension/speed	/jointset/patellofemoral_r/patellar_flexion_r/speed	/jointset/knee_r/knee_flexion_r/speed	/jointset/knee_r/knee_adduction_r/speed	/jointset/knee_r/knee_rotation_r/speed	/jointset/ankle_r/ankle_angle_r/speed	/jointset/subtalar_r/subtalar_angle_r/speed	/forceset/tau_hip_flexion_r	/forceset/tau_hip_adduction_r	/forceset/tau_hip_rotation_r	/forceset/tau_knee_flexion_r	/forceset/tau_ankle_angle_r	/forceset/tau_subtalar_angle_r	/forceset/tau_lumbar_extension	lambda_cid13_p0	lambda_cid14_p0	lambda_cid14_p1	lambda_cid14_p2	lambda_cid14_p3	lambda_cid14_p4	lambda_cid14_p5	/jointset/ground_pelvis/pelvis_tilt/accel	/jointset/ground_pelvis/pelvis_tx/accel	/jointset/ground_pelvis/pelvis_ty/accel	/jointset/hip_r/hip_flexion_r/accel	/jointset/hip_r/hip_adduction_r/accel	/jointset/hip_r/hip_rotation_r/accel	/jointset/back/lumbar_extension/accel	/jointset/patellofemoral_r/patellar_flexion_r/accel	/jointset/knee_r/knee_flexion_r/accel	/jointset/knee_r/knee_adduction_r/accel	/jointset/knee_r/knee_rotation_r/accel	/jointset/ankle_r/ankle_angle_r/accel	/jointset/subtalar_r/subtalar_angle_r/accel	gamma_cid13_p0	gamma_cid14_p0	gamma_cid14_p1	gamma_cid14_p2	gamma_cid14_p3	gamma_cid14_p4	gamma_cid14_p5
1	-0.273821374722413	-0.0004786863648150826	0.6468447914760771	1.422045652543996	-0.2521290243774333	0.0793230601729573	-0.785395613168744	1.483662163387531	1.483662163387325	0.0247122283865383	0.1744883065335807	0.4362301251698773	0.1455733880355876	0.07552133021890627	0.00657949705217013	0.01528606883679756	-0.1062682811228215	-0.001607722829783457	-0.009271431996536912	0.0001916610623119247	-0.01523409054046512	-0.01523409054046529	-0.003259679478809967	-4.343847500318491e-05	0.01576089567038677	0.004515764032859827	-0.3585564165188303	0.03601992906553093	0.04270495292813568	-0.4265307774195188	-0.06197883892059473	-0.01568409426215613	0.3701404336411081	-0.04056769542429775	-72.40642313699354	-22.58362681137541	7.556684313466436	9.717001652929623	-766.4725468279323	57.21324475597453	1.486910382624921	0.1592037287546682	1.740283987289784	-5.435373285263418	-0.06449331986981133	-1.308220764730403	0.01842252224125375	-4.850432419577131	-4.850432419577293	0.2980861736236834	0.0009664099510308805	-1.144715328688682	-0.6197419815335313	1.044021035346045e-09	-1.239477653467246e-09	-1.199052941637332e-09	5.304611790026771e-09	2.635911236408993e-09	-6.170351791924153e-09	-2.877623385189733e-09
1.01	-0.2729929698890898	-0.0004048035796735695	0.6470845209064452	1.420712356477332	-0.252148223381628	0.0791655909801252	-0.785390198098424	1.483267455120598	1.483267455120535	0.02469499473885475	0.1744875649006791	0.43633065406139	0.1455877986223238	0.09011526063393498	0.008213828421984119	0.03265889708437028	-0.1603717716262185	-0.002231617644988817	-0.02222033229659949	0.001067713845355189	-0.06371702135320967	-0.0637170213532099	-0.0001831614174739852	-0.0001068275632080899	0.004361086370840889	-0.001625297754553503	-0.3592833788524566	0.03611465314644813	0.04270797837840467	-0.4265437163871886	-0.06227896692975388	-0.01564791052733645	0.3711687907045079	-0.04056772999619081	-72.53668483695304	-22.58915853553381	7.555782488257744	9.541143725160312	-767.1840129636398	57.22005985974029	1.438978243339532	0.1680640670232209	1.735642280774356	-5.39496284494373	-0.06126609758685132	-1.287913369343538	0.1486507908909602	-4.848642589942984	-4.848642589942873	0.3130184487618279	-0.01027954940221368	-1.135183990674444	-0.6100330982753092	1.999207977256792e-09	-2.646035760147651e-09	8.13746232894036e-09	1.215976095596386e-08	4.773498421440431e-09	-9.663968759468219e-09	9.760034652146707e-09
1.02	-0.2720199569771379	-0.0003140742356482138	0.6474979506267459	1.418838600323234	-0.252173647041021	0.0788786950429546	-0.785370731673725	1.482387633709973	1.482387633710045	0.02470864303707107	0.1744861317806539	0.4363176708079958	0.1455410496270003	0.104442945944878	0.009948808828938628	0.05002612682330022	-0.2143602986122457	-0.002852653869836666	-0.03515678086463497	0.003001932010615864	-0.1122567192787485	-0.1122567192787481	0.002916709698790491	-0.0001817358992512939	-0.006941533332181164	-0.007716152379169637	-0.3600103411860153	0.03620937722738058	0.04271100382863996	-0.4265566553548579	-0.06257909493891906	-0.01561172679249011	0.3721971477679704	-0.04057312097199398	-72.67423595846061	-22.59274366848956	7.550889091118168	9.367994461145013	-768.0340671355693	57.23498559747306	1.433661361807775	0.1793335361827842	1.739164285561229	-5.412380581789449	-0.06392160179831377	-1.305730418324985	0.2300555986856458	-4.861785842135984	-4.861785842136001	0.3027567846093843	-0.001337439616619661	-1.125277409383896	-0.6097005489740931	2.749988845679776e-09	-2.360558173804665e-09	1.895467521214425e-08	1.838038992652563e-08	2.920269821428016e-09	-1.21191392004651e-08	2.385036272141061e-08
1.03	-0.2709049068185773	-0.000205516499329782	0.6480849698750627	1.416425596600954	-0.2522052430037164	0.07846254117811363	-0.785326806450702	1.481022166314246	1.481022166314228	0.02475340632578882	0.1744838902423141	0.4361920302536184	0.1454336518077599	0.1185302989365714	0.0117771135288288	0.06737116990416193	-0.2682134467610259	-0.003464086988248585	-0.04806693072668111	0.00594428657499975	-0.1608428740012092	-0.160842874001209	0.006041041844981825	-0.0002678414413990476	-0.01818236549683831	-0.0137551197849479	-0.3604545203622952	0.03629900150255858	0.04271177244450983	-0.4261718584137158	-0.0630444402175683	-0.01554055392815198	0.3729762845298967	-0.04059027933853927	-72.83676561347956	-22.57442669806969	7.529847893664672	9.298226547499883	-768.4766753562395	57.23368081419948	1.390754506854058	0.1867353948759623	1.731188451409136	-5.367732100724043	-0.05938200663218222	-1.28259830784798	0.3505014823693754	-4.857948111746224	-4.857948111746253	0.3180373870998937	-0.01243059451826603	-1.122855927024496	-0.5997432955036694	3.49868393784268e-09	-2.057814917124697e-09	2.978699725466066e-08	2.459454420121623e-08	1.026318611364112e-09	-1.456371324833395e-08	3.795551395426561e-08
1.04	-0.2696500866822982	-7.824442441572222e-05	0.6488452423806005	1.413474871363331	-0.2522428788655487	0.07791749760711328	-0.7852486224626342	1.479170653806406	1.479170653806295	0.02482956612747413	0.174480750951951	0.4359541074161697	0.1452661146226371	0.1323969414884239	0.01369167654806423	0.08467677826745895	-0.3219046016818758	-0.004060633697446552	-0.06093472209686825	0.00985368502156847	-0.2094657417014739	-0.2094657417014737	0.009196012290206361	-0.0003612863037229197	-0.02939798994220954	-0.01974402555568489	-0.3608986995385526	0.03638862577774721	0.0427125410603466	-0.425787061472574	-0.06350978549621719	-0.01546938106379294	0.3737554212918439	-0.04061289386598538	-73.00670598038955	-22.55424912152338	7.504902789554922	9.22979280460812	-769.0600543767014	57.24054350528642	1.389519273839557	0.1965852000518686	1.731277342048291	-5.379981936203436	-0.06094431995553039	-1.297258719953188	0.4234643751225239	-4.869128437696786	-4.869128437696721	0.3088844444160251	-0.002805303651835267	-1.120235865526654	-0.5996882219658273	4.037658364319586e-09	-1.907780454103707e-09	3.941230355640583e-08	3.015671209301933e-08	-4.878944818597818e-10	-1.639373458800671e-08	4.948099233870552e-08
1.05	-0.2682577932500205	6.861973488709463e-05	0.6497782795772294	1.409988304495407	-0.2522863873293805	0.07724403047712314	-0.7851263741383352	1.476832858240873	1.476832858240864	0.02493740168641381	0.174476643311154	0.43560412396929	0.1450389766475017	0.1460136560360989	0.01569707226814596	0.1019144493192494	-0.3753534118427805	-0.004636863379383203	-0.07374539353502531	0.01477371488207922	-0.2580866124819444	-0.2580866124819446	0.01237577975753582	-0.0004613196841506306	-0.0405977818125097	-0.02567187804688363	-0.3610278685636671	0.03644520042762067	0.04271667092158817	-0.4251027388809984	-0.06387223322686994	-0.01539085552864098	0.3743088423404322	-0.04064402634270359	-73.11335979498901	-22.51397162641052	7.470098815197387	9.128975271463947	-769.2247078681432	57.22763734398688	1.340534481782721	0.2049038881515255	1.717576566684087	-5.319026601390167	-0.05532660398793129	-1.270975546932008	0.5529325477849008	-4.85755347913125	-4.857553479131377	0.3232282025407934	-0.01375353804329603	-1.119715581522736	-0.58756786440815	4.570079019993807e-09	-1.762518140884559e-09	4.899989061625191e-08	3.56985054103572e-08	-1.990240758932427e-09	-1.820455115554835e-08	6.092585594663248e-08
